<svg width="149" height="42" viewBox="0 0 149 42" fill="none" xmlns="http://www.w3.org/2000/svg">
<path d="M30.96 20.928C30.96 25.176 33.984 27.24 37.8 27.24C41.592 27.24 44.616 25.176 44.616 20.928C44.616 16.704 41.592 14.64 37.8 14.64C33.984 14.64 30.96 16.704 30.96 20.928ZM34.8 20.928C34.8 18.912 35.976 18 37.8 18C39.6 18 40.776 18.912 40.776 20.928C40.776 22.968 39.6 23.88 37.8 23.88C35.976 23.88 34.8 22.968 34.8 20.928ZM49.401 27.24C50.985 27.24 52.065 26.088 52.065 24.576C52.065 23.112 50.985 21.96 49.401 21.96C47.769 21.96 46.785 23.112 46.785 24.576C46.785 26.088 47.769 27.24 49.401 27.24ZM69.9534 20.784H68.1054V17.04H64.2654V20.784H58.7934L56.3934 21.504V20.544C62.3934 19.296 65.8014 15.672 66.0654 10.08H62.2254C61.9374 14.088 59.4654 16.536 55.4334 17.16V24.144H64.2654V27H68.1054V24.144H69.9534V20.784ZM71.8922 20.784C71.8922 25.392 75.3962 27.24 79.8602 27.24C84.3242 27.24 87.3002 25.272 87.3002 20.616C87.3002 16.728 84.9002 14.64 81.9242 14.64C79.5482 14.64 77.7722 15.84 76.8602 18.48L76.0682 18.024L76.7882 15.864V13.44H85.9562V10.08H72.9482V17.304L77.2682 19.8C78.2282 18.576 79.3562 18 80.7722 18C82.5722 18 83.4602 18.912 83.4602 20.712C83.4602 22.824 82.5722 23.88 79.8602 23.88C76.8602 23.88 75.7322 22.824 75.7322 20.784H71.8922ZM89.7159 17.832H93.5559C93.5559 14.592 94.8519 13.2 97.7559 13.2C99.9399 13.2 100.66 14.28 100.66 15.36C100.66 19.104 91.6839 20.04 89.9559 20.28V27H104.5V23.64H93.3159L90.9159 24.36V23.4C98.8359 21.936 104.5 21.216 104.5 15.528C104.5 11.832 101.716 9.84 97.7079 9.84C93.2679 9.84 89.7159 12.144 89.7159 17.832ZM110.243 27.24C111.827 27.24 112.907 26.088 112.907 24.576C112.907 23.112 111.827 21.96 110.243 21.96C108.611 21.96 107.627 23.112 107.627 24.576C107.627 26.088 108.611 27.24 110.243 27.24ZM130.795 20.784H128.947V17.04H125.107V20.784H119.635L117.235 21.504V20.544C123.235 19.296 126.643 15.672 126.907 10.08H123.067C122.779 14.088 120.307 16.536 116.275 17.16V24.144H125.107V27H128.947V24.144H130.795V20.784ZM132.482 18.672C132.482 24.528 135.554 27.24 140.21 27.24C145.01 27.24 147.914 24.6 147.914 20.832C147.914 16.968 145.418 14.64 141.218 14.64C138.05 14.64 135.482 16.32 135.194 19.152H134.234L135.194 16.992C135.914 13.824 137.786 12.936 140.858 13.2L146.546 13.68V10.32L140.858 9.84C134.81 9.336 132.482 13.392 132.482 18.672ZM136.322 21.072C136.322 19.08 137.498 18 140.306 18C142.898 18 144.074 18.864 144.074 20.832C144.074 23.088 142.85 23.88 140.21 23.88C137.522 23.88 136.322 22.536 136.322 21.072Z" fill="#FE8235"/>
<path d="M9.92623 29.2108L0 23.3529L9.92017 37.3373L19.8515 23.3529L9.92017 29.2108H9.92623ZM10.0738 5L0.151576 21.4683L10.0738 27.3363L20 21.4743L10.0738 5Z" fill="#FE8235"/>
</svg>
